<svg xmlns="http://www.w3.org/2000/svg" xmlns:svg="http://www.w3.org/2000/svg" id="svg9" width="4034.32" height="4034.32" version="1.1" viewBox="0 0 4034.32 4034.32" xml:space="preserve"><defs id="defs13"><clipPath id="clipPath23" clipPathUnits="userSpaceOnUse"><path id="path21" d="M 0,3401.57 H 3401.57 V 0 H 0 Z"/></clipPath></defs><g id="g15" transform="matrix(1.3333333,0,0,-1.3333333,-250.55306,4284.8732)"><g id="g17"><g id="g19" clip-path="url(#clipPath23)"><g id="g25" transform="translate(3213.6548,1700.785)"><path style="fill:#8bd1c9;fill-opacity:1;fill-rule:nonzero;stroke:none" id="path27" d="m 0,0 c 0,-835.535 -677.335,-1512.87 -1512.87,-1512.87 -835.535,0 -1512.87,677.335 -1512.87,1512.87 0,835.535 677.335,1512.87 1512.87,1512.87 C -677.335,1512.87 0,835.535 0,0"/></g><g id="g29" transform="translate(2548.8818,2236.2253)"><path style="fill:#304152;fill-opacity:1;fill-rule:nonzero;stroke:none" id="path31" d="m 0,0 c 98.709,157.729 50.865,365.613 -106.865,464.323 -157.729,98.709 -365.614,50.863 -464.323,-106.866 l 260.175,-162.821 -54.349,-86.845 c -137.152,96.117 -304.037,152.7 -484.23,152.7 -179.282,0 -345.402,-55.998 -482.16,-151.229 l -53.429,85.374 260.175,162.821 C -1223.715,515.186 -1431.6,563.032 -1589.329,464.323 -1747.058,365.613 -1794.903,157.729 -1696.194,0 l 260.175,162.821 56.107,-89.656 c -191.837,-154.894 -314.64,-391.871 -314.64,-657.634 0,-314.038 171.452,-587.856 425.727,-733.506 l -93.693,-268.588 h 166.852 l 66.62,204.657 c 87.498,-30.663 181.485,-47.525 279.454,-47.525 99.693,0 195.294,17.393 284.095,49.096 l 67.132,-206.228 h 160.591 l -88.209,270.979 -0.5,-0.163 c 252.14,146.205 421.852,418.837 421.852,731.278 0,264.848 -121.936,501.135 -312.637,656.059 l 57.094,91.231 z"/></g><g id="g33" transform="translate(2466.8489,1651.7554)"><path style="fill:#e7e8e9;fill-opacity:1;fill-rule:nonzero;stroke:none" id="path35" d="m 0,0 c 0,-423.085 -342.979,-766.064 -766.064,-766.064 -423.085,0 -766.064,342.979 -766.064,766.064 0,423.085 342.979,766.064 766.064,766.064 C -342.979,766.064 0,423.085 0,0"/></g><path style="fill:#808285;fill-opacity:1;fill-rule:nonzero;stroke:none" id="path37" d="m 1735.143,2173.493 h -68.717 v 179.427 h 68.717 z"/><path style="fill:#808285;fill-opacity:1;fill-rule:nonzero;stroke:none" id="path39" d="m 1735.143,965.225 h -68.717 v 179.427 h 68.717 z"/><path style="fill:#808285;fill-opacity:1;fill-rule:nonzero;stroke:none" id="path41" d="m 2215.206,1693.431 h 179.427 v -68.717 h -179.427 z"/><path style="fill:#808285;fill-opacity:1;fill-rule:nonzero;stroke:none" id="path43" d="m 1006.937,1693.431 h 179.427 v -68.717 h -179.427 z"/><g id="g45" transform="translate(1916.0298,1987.6204)"><path style="fill:#808285;fill-opacity:1;fill-rule:nonzero;stroke:none" id="path47" d="m 0,0 c -7.66,5.531 -18.453,3.788 -23.984,-3.873 l -171.983,-238.228 c -6.103,2.006 -12.503,3.362 -19.278,3.362 -34.287,0 -62.083,-27.796 -62.083,-62.084 0,-20.875 10.384,-39.245 26.183,-50.5 -1.045,-2.73 -1.878,-5.568 -2.195,-8.605 l -22.696,-217.377 c -1.962,-18.794 11.809,-35.778 30.605,-37.741 18.795,-1.961 35.777,11.81 37.74,30.606 l 22.697,217.375 c 0.426,4.083 -0.013,8.042 -0.963,11.818 19.435,10.488 32.796,30.791 32.796,54.424 0,15.016 -5.548,28.603 -14.421,39.339 L 3.874,-23.984 C 9.404,-16.323 7.661,-5.53 0,0"/></g></g></g></g></svg>