<?xml version="1.0" standalone="no"?>
<!DOCTYPE svg PUBLIC "-//W3C//DTD SVG 20010904//EN"
 "http://www.w3.org/TR/2001/REC-SVG-20010904/DTD/svg10.dtd">
<svg version="1.0" xmlns="http://www.w3.org/2000/svg"
 width="700.000000pt" height="700.000000pt" viewBox="0 0 700.000000 700.000000"
 preserveAspectRatio="xMidYMid meet">
<metadata>
Created by potrace 1.14, written by Peter Selinger 2001-2017
</metadata>
<g transform="translate(0.000000,700.000000) scale(0.100000,-0.100000)"
fill="#000000" stroke="none">
<path d="M2102 5929 c-217 -25 -437 -162 -556 -347 -87 -134 -116 -228 -123
-397 -5 -112 -2 -143 16 -215 29 -117 85 -234 108 -226 13 5 472 289 569 353
20 13 24 9 83 -82 33 -53 61 -98 61 -101 0 -3 -50 -53 -110 -111 -336 -321
-535 -713 -595 -1168 -99 -755 257 -1501 913 -1914 28 -18 52 -34 52 -36 0 -1
-47 -138 -105 -305 -58 -166 -105 -306 -105 -311 0 -15 376 -12 387 4 5 6 42
114 83 238 l74 227 40 -15 c76 -27 240 -63 354 -78 269 -36 621 -3 851 80 24
8 47 13 50 10 3 -4 40 -110 81 -238 l76 -232 187 -3 c146 -2 187 0 187 10 0 7
-45 150 -100 317 -55 168 -98 305 -97 306 13 5 166 109 212 144 82 62 245 221
316 307 225 275 371 608 424 967 18 126 21 385 5 514 -34 272 -132 551 -273
780 -102 163 -258 349 -388 459 l-46 39 63 100 c35 55 67 99 72 98 4 -1 138
-83 297 -182 159 -100 293 -181 297 -181 16 0 77 143 99 230 18 72 21 103 16
215 -7 169 -36 263 -123 397 -258 400 -832 470 -1180 145 -64 -59 -134 -144
-134 -160 0 -3 134 -89 299 -192 l299 -187 -61 -97 -61 -97 -95 59 c-227 143
-510 243 -786 277 -131 16 -382 14 -510 -5 -186 -27 -328 -67 -501 -141 -100
-42 -282 -141 -317 -172 -22 -20 -25 -16 -94 94 l-51 81 299 188 c164 103 299
189 299 192 0 16 -70 101 -134 160 -120 112 -273 182 -446 203 -46 5 -89 9
-95 9 -5 -1 -43 -5 -83 -10z m1547 -779 c920 -82 1620 -844 1621 -1767 0 -714
-443 -1370 -1109 -1637 -130 -53 -308 -99 -444 -116 -142 -18 -433 -8 -562 20
-450 96 -835 346 -1101 715 -77 108 -192 334 -234 462 -88 268 -112 588 -64
863 111 640 568 1169 1186 1374 248 82 460 108 707 86z"/>
<path d="M3420 4800 l0 -210 80 0 80 0 0 210 0 210 -80 0 -80 0 0 -210z"/>
<path d="M3753 3893 l-200 -278 -49 -5 c-56 -7 -79 -17 -113 -54 -44 -47 -38
-153 12 -195 8 -6 13 -19 11 -29 -5 -23 -54 -491 -54 -520 0 -31 43 -72 75
-72 16 0 38 11 54 28 26 26 28 33 55 302 25 238 31 277 47 288 46 32 63 120
34 175 -14 28 -13 30 185 304 119 164 200 285 200 298 0 22 -17 35 -44 35 -7
0 -102 -125 -213 -277z"/>
<path d="M1900 3400 l0 -80 205 0 205 0 0 80 0 80 -205 0 -205 0 0 -80z"/>
<path d="M4690 3400 l0 -80 205 0 205 0 0 80 0 80 -205 0 -205 0 0 -80z"/>
<path d="M3420 2005 l0 -205 80 0 80 0 0 205 0 205 -80 0 -80 0 0 -205z"/>
</g>
</svg>
